<svg xmlns="http://www.w3.org/2000/svg" viewBox="0 0 236.27 68.93"><defs><style>.cls-1{fill:#f7931e;}</style></defs><title>Middel 2</title><g id="Laag_2" data-name="Laag 2"><g id="bovenbalk"><path class="cls-1" d="M58.11,2.69l-36.67.07L3.17,34.46,21.5,66.17H55.14V35.84H39L38.95,33H58.11V68.93H19.92L0,34.46,19.85,0H58.11Z"/><path class="cls-1" d="M89.44,44.6l-12.27-7L65,44.6V58.66l-2.69,1.59V34.46L65,36v5.58l12.2-7.1,14.89,8.62Z"/><path class="cls-1" d="M111.09,34.53,126,43.08V60.31l-14.89,8.62L96.35,60.38l27-15.58V44.6l-12.2-7-12.2,7-2.69-1.52Zm0,31.29,12.2-7V47.91L101.65,60.38Z"/><path class="cls-1" d="M157.3,10.13,145,3.1l-12.2,7V24.26l12.2,7v3.1l-12.2-7v40l-2.69,1.58V8.62L145,0l14.89,8.62Z"/><path class="cls-1" d="M152,35.91V32.47l3-1.79,3,1.72v3.52l-3,1.79Zm4.34,8.75.07,14-2.69,1.59V43.15Z"/><path class="cls-1" d="M164.89,41.63l12.27-7.1,14.89,8.62V60.31l-2.69-1.52V44.66l-12.2-7-12.27,7V58.8l-2.62,1.52-.07-25.78,2.69,1.59Z"/><path class="cls-1" d="M196.21,60.31V43.15l14.89-8.62,12.27,7v-40L226.05,0V60.31l-15,8.62Zm27.16-1.52-.07-14.13-12.13-7-12.27,7V58.8l12.2,7Z"/><path class="cls-1" d="M230.21,35.91V32.47l3-1.79,3,1.72v3.52l-3,1.79Zm4.34,8.75.07,14-2.69,1.59V43.15Z"/></g></g></svg>